<svg width="21" height="21" viewBox="0 0 21 21" fill="none" xmlns="http://www.w3.org/2000/svg">
<g clip-path="url(#clip0_2_917)">
<path d="M11.375 2.625V0.875C11.375 0.642935 11.2828 0.420376 11.1187 0.256281C10.9546 0.0921872 10.7321 0 10.5 0C10.2679 0 10.0454 0.0921872 9.88127 0.256281C9.71718 0.420376 9.62499 0.642935 9.62499 0.875V2.625C8.00111 2.62685 6.44427 3.27276 5.29602 4.42102C4.14776 5.56927 3.50185 7.12612 3.5 8.75V14C3.5 15.8565 4.2375 17.637 5.55025 18.9497C6.863 20.2625 8.64348 21 10.5 21C12.3565 21 14.137 20.2625 15.4497 18.9497C16.7625 17.637 17.5 15.8565 17.5 14V8.75C17.4981 7.12612 16.8522 5.56927 15.704 4.42102C14.5557 3.27276 12.9989 2.62685 11.375 2.625ZM15.75 14C15.75 15.3924 15.1969 16.7277 14.2123 17.7123C13.2277 18.6969 11.8924 19.25 10.5 19.25C9.10761 19.25 7.77225 18.6969 6.78769 17.7123C5.80312 16.7277 5.25 15.3924 5.25 14V8.75C5.25139 7.5901 5.71277 6.47811 6.53294 5.65794C7.35311 4.83777 8.4651 4.37639 9.62499 4.375H11.375C12.5349 4.37639 13.6469 4.83777 14.467 5.65794C15.2872 6.47811 15.7486 7.5901 15.75 8.75V14Z" fill="white"/>
<path d="M10.5 6.125C10.2679 6.125 10.0454 6.21719 9.88128 6.38128C9.71719 6.54538 9.625 6.76794 9.625 7V8.75001C9.625 8.98207 9.71719 9.20463 9.88128 9.36873C10.0454 9.53282 10.2679 9.62501 10.5 9.62501C10.7321 9.62501 10.9546 9.53282 11.1187 9.36873C11.2828 9.20463 11.375 8.98207 11.375 8.75001V7C11.375 6.76794 11.2828 6.54538 11.1187 6.38128C10.9546 6.21719 10.7321 6.125 10.5 6.125Z" fill="white"/>
</g>
<defs>
<clipPath id="clip0_2_917">
<rect width="21" height="21" fill="white"/>
</clipPath>
</defs>
</svg>
