<svg width="21" height="21" viewBox="0 0 21 21" fill="none" xmlns="http://www.w3.org/2000/svg">
<path d="M19.2499 13.286V7C19.2486 5.8401 18.7872 4.72811 17.967 3.90794C17.1468 3.08777 16.0348 2.62639 14.8749 2.625H6.12494C4.96505 2.62639 3.85306 3.08777 3.03288 3.90794C2.21271 4.72811 1.75133 5.8401 1.74994 7V13.286C1.1666 13.4915 0.67479 13.8968 0.361633 14.4301C0.0484751 14.9634 -0.0658247 15.5904 0.0389775 16.1999C0.14378 16.8094 0.460921 17.3622 0.934229 17.7603C1.40754 18.1584 2.00647 18.3762 2.62494 18.375H18.3749C18.9934 18.3762 19.5924 18.1584 20.0657 17.7603C20.539 17.3622 20.8561 16.8094 20.9609 16.1999C21.0657 15.5904 20.9514 14.9634 20.6383 14.4301C20.3251 13.8968 19.8333 13.4915 19.2499 13.286ZM6.12494 4.375H14.8749C15.5711 4.375 16.2388 4.65156 16.7311 5.14384C17.2234 5.63613 17.4999 6.30381 17.4999 7V13.125H13.8678C13.6133 13.1248 13.3619 13.1802 13.1309 13.2872C12.9 13.3942 12.6952 13.5502 12.5308 13.7445L12.3147 14H8.68432L8.46907 13.7445C8.30466 13.5502 8.09986 13.3942 7.86895 13.2872C7.63804 13.1802 7.38657 13.1248 7.13207 13.125H3.49994V7C3.49994 6.30381 3.7765 5.63613 4.26879 5.14384C4.76107 4.65156 5.42875 4.375 6.12494 4.375ZM18.3749 16.625H2.62494C2.39288 16.625 2.17032 16.5328 2.00622 16.3687C1.84213 16.2046 1.74994 15.9821 1.74994 15.75C1.74994 15.5179 1.84213 15.2954 2.00622 15.1313C2.17032 14.9672 2.39288 14.875 2.62494 14.875H7.13294L7.34819 15.1305C7.5125 15.3246 7.71716 15.4807 7.94791 15.5876C8.17867 15.6946 8.42997 15.75 8.68432 15.75H12.3147C12.5692 15.7502 12.8207 15.6948 13.0516 15.5878C13.2825 15.4808 13.4873 15.3248 13.6517 15.1305L13.8678 14.875H18.3749C18.607 14.875 18.8296 14.9672 18.9937 15.1313C19.1578 15.2954 19.2499 15.5179 19.2499 15.75C19.2499 15.9821 19.1578 16.2046 18.9937 16.3687C18.8296 16.5328 18.607 16.625 18.3749 16.625Z" fill="white"/>
</svg>
