<svg width="28" height="32" viewBox="0 0 28 32" fill="none" xmlns="http://www.w3.org/2000/svg">
<path d="M27.764 18.2109L25.3183 9.09727C24.6014 6.42736 23.0435 4.08223 20.892 2.43466C18.7406 0.787097 16.1191 -0.0683605 13.4444 0.00427128C10.7696 0.0769031 8.19508 1.07346 6.12995 2.83552C4.06483 4.59759 2.62764 7.02405 2.04684 9.7292L0.153361 18.5482C-0.055791 19.5227 -0.0509554 20.5333 0.167511 21.5056C0.385977 22.4779 0.812494 23.3869 1.41557 24.1656C2.01865 24.9443 2.7829 25.5728 3.65188 26.0046C4.52086 26.4364 5.47239 26.6606 6.43623 26.6606H7.87018C8.16561 28.1675 8.95495 29.5222 10.1044 30.4953C11.2539 31.4684 12.6929 32 14.1775 32C15.6621 32 17.1011 31.4684 18.2506 30.4953C19.4001 29.5222 20.1894 28.1675 20.4848 26.6606H21.5635C22.5557 26.6607 23.5345 26.4231 24.4234 25.9666C25.3123 25.51 26.0872 24.8468 26.6877 24.0287C27.2881 23.2106 27.6978 22.2598 27.8847 21.2506C28.0717 20.2414 28.0308 19.201 27.7653 18.2109H27.764ZM14.1775 29.327C13.3817 29.3235 12.6063 29.0655 11.9575 28.5883C11.3086 28.111 10.818 27.4377 10.5527 26.6606H17.8023C17.537 27.4377 17.0464 28.111 16.3976 28.5883C15.7487 29.0655 14.9733 29.3235 14.1775 29.327ZM24.6374 22.4144C24.2787 22.9072 23.814 23.3067 23.2801 23.5809C22.7463 23.8551 22.1581 23.9967 21.5622 23.9942H6.43623C5.85799 23.9941 5.28716 23.8595 4.76587 23.6004C4.24458 23.3412 3.78613 22.9641 3.42437 22.4969C3.0626 22.0297 2.80676 21.4844 2.67573 20.901C2.54469 20.3177 2.5418 19.7114 2.66728 19.1268L4.55948 10.3065C5.0156 8.18165 6.14443 6.27574 7.7665 4.89169C9.38858 3.50764 11.4108 2.7249 13.5117 2.6679C15.6126 2.61089 17.6717 3.2829 19.3615 4.57708C21.0513 5.87127 22.2749 7.71336 22.8378 9.81052L25.2835 18.9241C25.4451 19.5179 25.4709 20.1425 25.3587 20.7484C25.2465 21.3542 24.9996 21.9247 24.6374 22.4144Z" fill="#A2A3B7"/>
</svg>
