<svg width="21" height="21" viewBox="0 0 21 21" fill="none" xmlns="http://www.w3.org/2000/svg" class="feather feather-componentMenu">
<path d="M3.80809 5.2092C3.80809 5.09867 3.80809 5.01364 3.80809 4.92861C3.80809 3.93142 3.80809 2.93376 3.80809 1.93658C3.80809 1.59977 3.81302 1.59363 4.1052 1.59363C8.63635 1.59363 13.1671 1.59363 17.6982 1.59363C17.981 1.59363 17.9958 1.61111 17.9958 1.94224C17.9958 5.42933 17.9958 8.91595 17.9958 12.403C17.9958 12.7323 17.9822 12.7474 17.6953 12.7474C15.4536 12.7474 13.2123 12.7474 10.9705 12.7474H10.7277V14.3351C10.786 14.3393 10.8267 14.3445 10.867 14.3445C13.1769 14.3445 15.4869 14.3464 17.7969 14.3417C17.9522 14.3417 18.1125 14.3199 18.2616 14.2722C18.9849 14.0422 19.3835 13.3922 19.3839 12.4493C19.3852 8.93106 19.3852 5.4128 19.3823 1.89453C19.3823 1.69991 19.3716 1.49915 19.3281 1.31257C19.1296 0.461814 18.5678 0.00124621 17.7369 0.000773829C13.1786 -0.000643302 8.62032 -0.000170925 4.06205 0.00266334C3.89274 0.00266334 3.71809 0.0149451 3.55535 0.0645448C2.85509 0.276642 2.42647 0.911044 2.41989 1.75235C2.41167 2.85157 2.41743 3.95126 2.41825 5.05096C2.41825 5.10292 2.42935 5.15488 2.43592 5.21015H3.80767L3.80809 5.2092Z" fill="white"/>
<path d="M1.59997 21C1.48161 20.9726 1.36121 20.9523 1.24491 20.9159C0.458347 20.6698 0.00219174 19.9721 0.00136984 19.0028C-0.000684918 16.5606 0.000547934 14.1184 0.000547934 11.6762C0.000547934 10.7258 -0.000684918 9.77585 0.000547934 8.82543C0.00219174 7.61189 0.689713 6.81782 1.74421 6.81641C3.69171 6.81404 5.6392 6.81357 7.58711 6.81641C8.62353 6.81782 9.31557 7.60291 9.3168 8.78953C9.3205 12.1977 9.32009 15.6059 9.3168 19.0137C9.31598 19.9868 8.85695 20.6774 8.06751 20.9192C7.9508 20.9551 7.82998 20.9735 7.71081 21H1.59997ZM7.91916 18.3495C7.92327 18.2758 7.92984 18.2149 7.92984 18.1539C7.93026 15.0443 7.93067 11.9341 7.92984 8.82448C7.92984 8.48484 7.86615 8.4154 7.56492 8.4154C5.63797 8.4154 3.71061 8.4154 1.78366 8.4154C1.44422 8.4154 1.39203 8.47539 1.39203 8.86463C1.39203 11.9431 1.39203 15.0216 1.39203 18.0996C1.39203 18.1827 1.39203 18.2654 1.39203 18.35H7.91916V18.3495ZM5.22003 19.6098C5.22168 19.255 4.97182 18.9702 4.6595 18.9716C4.34923 18.9726 4.09732 19.2626 4.1006 19.614C4.10389 19.966 4.35868 20.257 4.66279 20.256C4.96894 20.2551 5.21839 19.966 5.22003 19.6103V19.6098Z" fill="white"/>
<path d="M21 15.8632C20.9083 16.2095 20.7994 16.5448 20.5619 16.8013C20.2627 17.1245 19.9015 17.2662 19.4984 17.2666C16.6225 17.269 13.7467 17.2681 10.8713 17.2676C10.8252 17.2676 10.7788 17.26 10.7217 17.2553V15.0115C10.8072 15.0068 10.8922 14.9973 10.9773 14.9973C14.0648 14.9964 17.1522 15.0011 20.2397 14.9902C20.5796 14.9888 20.8368 15.0871 21.0004 15.439V15.8632H21Z" fill="white"/>
<path d="M3.80785 5.2092H2.4361C2.42952 5.15394 2.41843 5.10197 2.41843 5.05001C2.41761 3.95032 2.41144 2.8511 2.42007 1.7514C2.42624 0.9101 2.85527 0.27617 3.55553 0.0636C3.71744 0.0149451 3.89251 0.00266334 4.06182 0.00266334C8.62009 -0.000170925 13.1784 -0.000643302 17.7366 0.000773829C18.5676 0.000773829 19.1289 0.461814 19.3274 1.31257C19.371 1.49915 19.3817 1.70039 19.3817 1.89453C19.3849 5.4128 19.3849 8.93106 19.3833 12.4493C19.3833 13.3927 18.9843 14.0427 18.261 14.2722C18.1118 14.3195 17.9515 14.3412 17.7962 14.3417C15.4863 14.3459 13.1763 14.3445 10.8663 14.3445C10.8257 14.3445 10.7854 14.3393 10.727 14.3351V12.7474H10.9699C13.2116 12.7474 15.453 12.7474 17.6947 12.7474C17.9815 12.7474 17.9951 12.7323 17.9951 12.403C17.9951 8.91595 17.9951 5.42933 17.9951 1.94224C17.9951 1.61111 17.9803 1.59363 17.6976 1.59363C13.1664 1.59363 8.6357 1.59363 4.10456 1.59363C3.81237 1.59363 3.80744 1.59977 3.80744 1.93658C3.80744 2.93376 3.80744 3.93142 3.80744 4.92861C3.80744 5.01364 3.80744 5.09867 3.80744 5.2092H3.80785Z" fill="white"/>
<path d="M5.22005 19.6094C5.2184 19.9655 4.96896 20.2546 4.6628 20.2551C4.35869 20.256 4.10391 19.9651 4.10062 19.6131C4.09733 19.2617 4.34924 18.9721 4.65951 18.9707C4.97183 18.9698 5.2221 19.2541 5.22005 19.6089V19.6094Z" fill="white"/>
</svg>
