<svg width="21" height="21" viewBox="0 0 21 21" fill="none" xmlns="http://www.w3.org/2000/svg" class="feather feather-consumableMenu">
<g clip-path="url(#clip0_1540_606)">
<path d="M9.88242 20.9999C9.48449 20.9466 9.08246 20.9057 8.68863 20.8401C6.48566 20.4589 4.59857 19.4628 3.03147 17.8805C1.53411 16.372 0.561845 14.5684 0.18853 12.4737C-0.389904 9.21896 0.369034 6.30036 2.47355 3.74248C2.51457 3.69329 2.55149 3.6482 2.58841 3.59901C2.59662 3.59081 2.59662 3.57441 2.60072 3.54572C1.8746 3.54572 1.15669 3.54572 0.418262 3.54572C0.418262 2.99643 0.418262 2.45944 0.418262 1.91016C2.12895 1.91016 3.83963 1.91016 5.56263 1.91016C5.56263 3.61951 5.56263 5.32476 5.56263 7.0464C5.02932 7.0464 4.49601 7.0464 3.93399 7.0464C3.93399 6.24297 3.93399 5.43543 3.93399 4.6279C3.90937 4.6156 3.88886 4.6074 3.86425 4.59511C3.54837 5.04191 3.20377 5.47233 2.9166 5.93963C2.22741 7.0505 1.82537 8.27205 1.68589 9.57148C1.55462 10.793 1.66948 11.9982 2.0469 13.1705C2.46124 14.4495 3.12172 15.589 4.04475 16.5646C5.07034 17.6509 6.29695 18.438 7.72047 18.9053C8.41787 19.1348 9.12758 19.2824 9.86191 19.3357C9.97677 19.3439 10.1122 19.4095 10.1983 19.4873C10.6537 19.9014 11.0926 20.3318 11.5398 20.754C11.589 20.7991 11.6587 20.8237 11.7162 20.8565C11.6998 20.877 11.6834 20.8975 11.6628 20.918C11.4905 20.9466 11.3182 20.9712 11.1459 20.9999C10.7316 20.9999 10.3091 20.9999 9.88242 20.9999Z" fill="white"/>
<path d="M21.0001 11.121C20.9509 11.1005 20.8934 11.0923 20.8606 11.0636C20.3929 10.6414 19.9253 10.2233 19.4699 9.7888C19.3756 9.69861 19.3058 9.55104 19.2894 9.42397C18.9612 6.97267 17.8125 4.99278 15.8721 3.48019C14.6291 2.51279 13.2097 1.92661 11.6426 1.73804C11.138 1.67656 10.6252 1.66016 10.1001 1.62327C10.1001 1.10677 10.1001 0.573882 10.1001 0C10.5842 0.0204958 11.0642 0.0204958 11.5359 0.0655866C13.021 0.213156 14.4281 0.639469 15.7162 1.40191C18.3623 2.96779 20.0565 5.23873 20.7457 8.23931C20.8565 8.71482 20.8893 9.21081 20.9632 9.69451C20.9714 9.7601 20.9878 9.82569 21.0001 9.89127C21.0001 10.3012 21.0001 10.7111 21.0001 11.121Z" fill="white"/>
<path d="M21.0002 13.4175C20.9263 13.4872 20.8525 13.5528 20.7827 13.6266C18.629 16.0287 16.4711 18.4267 14.3174 20.8247C14.2723 20.8739 14.2231 20.9231 14.1656 20.9887C12.6847 19.5786 11.2119 18.1807 9.73096 16.7706C10.1084 16.373 10.4776 15.9877 10.8591 15.5819C11.9298 16.6026 13.0005 17.6151 14.0754 18.6398C15.9748 16.5247 17.866 14.4218 19.7695 12.3066C20.1838 12.6674 20.594 13.024 21.0002 13.3806C21.0002 13.3929 21.0002 13.4052 21.0002 13.4175Z" fill="white"/>
<path d="M10.092 10.1053C10.092 7.89999 10.092 5.72743 10.092 3.55078C10.6376 3.55078 11.1668 3.55078 11.7124 3.55078C11.7124 6.27262 11.7124 8.99446 11.7124 11.7286C9.64485 11.7286 7.57726 11.7286 5.50146 11.7286C5.50146 11.1916 5.50146 10.6628 5.50146 10.1094C7.02344 10.1053 8.54542 10.1053 10.092 10.1053Z" fill="white"/>
</g>
<defs>
<clipPath id="clip0_1540_606">
<rect width="21" height="21" fill="white"/>
</clipPath>
</defs>
</svg>
