<svg width="16" height="18" viewBox="0 0 16 18" fill="none" xmlns="http://www.w3.org/2000/svg">
<g clip-path="url(#clip0_1538_249)">
<path d="M14.4218 17.0912C14.5219 17.0611 14.6226 17.0333 14.7216 17.0009C15.4766 16.7528 15.9836 16.0731 15.996 15.278C16.0041 14.7722 15.9981 14.266 15.9981 13.7601C15.9981 11.636 15.9994 9.51195 15.9974 7.38788C15.9964 6.45272 15.4079 5.72151 14.5047 5.53194C14.3689 5.50352 14.2268 5.49316 14.0876 5.49282C13.113 5.48948 12.1381 5.49115 11.1635 5.49082C10.9348 5.49082 10.729 5.54565 10.5865 5.73823C10.4426 5.93282 10.4113 6.14446 10.5194 6.36546C10.6292 6.59014 10.8122 6.71351 11.0658 6.71418C12.063 6.71685 13.0602 6.71518 14.057 6.71685C14.4279 6.71752 14.6741 6.89238 14.7445 7.20399C14.759 7.26818 14.7594 7.33639 14.7594 7.40259C14.76 9.99942 14.7604 12.5959 14.7597 15.1928C14.7597 15.6224 14.5192 15.8628 14.0832 15.8628C10.0276 15.8638 5.97191 15.8638 1.91624 15.8628C1.48167 15.8628 1.24215 15.6214 1.24215 15.1904C1.24148 12.5936 1.24148 9.99708 1.24215 7.40025C1.24215 6.96493 1.4874 6.71953 1.93039 6.71819C2.91643 6.71551 3.90214 6.71953 4.88818 6.71585C5.28266 6.71451 5.55317 6.45005 5.54374 6.08996C5.53633 5.8041 5.32174 5.55601 5.0364 5.51021C4.95387 5.49684 4.86931 5.49149 4.78577 5.49149C3.85026 5.49015 2.91475 5.48981 1.97924 5.49082C0.930876 5.49215 0.237918 6.05552 0.0273695 7.07393C0.0243378 7.08831 0.00917912 7.10034 -0.000253677 7.11338C-0.000253677 9.89411 -0.000253677 12.6748 -0.000253677 15.4556C0.0108633 15.486 0.0266962 15.5157 0.0327597 15.5472C0.166838 16.2703 0.587261 16.7515 1.28089 17.0002C1.37859 17.0353 1.47999 17.0607 1.58004 17.0905C5.86041 17.0912 10.1411 17.0912 14.4218 17.0912Z" fill="#2E323C"/>
<path d="M7.38392 10.7156C7.30947 10.6457 7.265 10.606 7.22289 10.5645C6.62055 9.96737 6.01855 9.36956 5.41588 8.77243C5.23902 8.5969 5.03655 8.50161 4.77952 8.57182C4.33652 8.69286 4.17145 9.20407 4.46454 9.55379C4.50024 9.59625 4.54033 9.63537 4.58008 9.67482C5.54625 10.6344 6.51241 11.5943 7.47892 12.5535C7.83803 12.9099 8.16177 12.9092 8.52223 12.5515C9.50052 11.5802 10.4791 10.6093 11.4564 9.63737C11.6976 9.39732 11.7475 9.12683 11.6033 8.86738C11.4268 8.54909 11.0232 8.45079 10.722 8.65608C10.658 8.69988 10.6014 8.75538 10.5458 8.80988C9.95497 9.39498 9.36442 9.98041 8.77522 10.5675C8.73345 10.609 8.70582 10.6645 8.6718 10.7133C8.65293 10.7009 8.63407 10.6882 8.6152 10.6758C8.6152 10.6116 8.6152 10.5475 8.6152 10.4833C8.6152 7.24716 8.61554 4.01106 8.61419 0.774962C8.61419 0.664295 8.61521 0.549949 8.58893 0.443629C8.5192 0.162113 8.24093 -0.0201037 7.93909 0.00296561C7.65477 0.0246979 7.42064 0.255059 7.39301 0.544265C7.38459 0.632532 7.38392 0.7218 7.38392 0.810736C7.38358 4.03012 7.38358 7.2495 7.38358 10.4689C7.38392 10.5354 7.38392 10.6016 7.38392 10.7156Z" fill="#2E323C"/>
</g>
<defs>
<clipPath id="clip0_1538_249">
<rect width="16" height="17.0909" fill="white" transform="matrix(-1 0 0 1 16 0)"/>
</clipPath>
</defs>
</svg>
