<svg width="21" height="21" viewBox="0 0 21 21" fill="none" xmlns="http://www.w3.org/2000/svg">
<g clip-path="url(#clip0_61_346)">
<path d="M20.2309 7.93522L13.594 1.29748C12.7726 0.478468 11.66 0.0185547 10.5 0.0185547C9.34005 0.0185547 8.22742 0.478468 7.406 1.29748L0.769135 7.93522C0.524507 8.17828 0.330559 8.46748 0.198533 8.78606C0.0665063 9.10463 -0.0009716 9.44624 1.05695e-05 9.79109V18.381C1.05695e-05 19.0772 0.276572 19.7448 0.768855 20.2371C1.26114 20.7294 1.92882 21.006 2.62501 21.006H18.375C19.0712 21.006 19.7389 20.7294 20.2311 20.2371C20.7234 19.7448 21 19.0772 21 18.381V9.79109C21.001 9.44624 20.9335 9.10463 20.8015 8.78606C20.6694 8.46748 20.4755 8.17828 20.2309 7.93522ZM13.125 19.256H7.875V15.8137C7.875 15.1175 8.15157 14.4498 8.64385 13.9576C9.13613 13.4653 9.80381 13.1887 10.5 13.1887C11.1962 13.1887 11.8639 13.4653 12.3562 13.9576C12.8484 14.4498 13.125 15.1175 13.125 15.8137V19.256ZM19.25 18.381C19.25 18.613 19.1578 18.8356 18.9937 18.9997C18.8296 19.1638 18.6071 19.256 18.375 19.256H14.875V15.8137C14.875 14.6534 14.4141 13.5406 13.5936 12.7201C12.7731 11.8997 11.6603 11.4387 10.5 11.4387C9.33968 11.4387 8.22688 11.8997 7.40641 12.7201C6.58594 13.5406 6.12501 14.6534 6.12501 15.8137V19.256H2.62501C2.39294 19.256 2.17038 19.1638 2.00629 18.9997C1.8422 18.8356 1.75001 18.613 1.75001 18.381V9.79109C1.75082 9.5592 1.84292 9.33696 2.00638 9.17247L8.64325 2.53735C9.13649 2.04641 9.80408 1.7708 10.5 1.7708C11.1959 1.7708 11.8635 2.04641 12.3568 2.53735L18.9936 9.17509C19.1564 9.33893 19.2485 9.56011 19.25 9.79109V18.381Z" fill="white"/>
</g>
<defs>
<clipPath id="clip0_61_346">
<rect width="21" height="21" fill="white"/>
</clipPath>
</defs>
</svg>
