<svg width="21" height="22" viewBox="0 0 21 22" fill="none" xmlns="http://www.w3.org/2000/svg" class="feather feather-manyusersMenu">
<g clip-path="url(#clip0_1540_612)">
<path d="M18.7031 21.0024H15.8731C15.6352 20.8771 15.4498 20.7156 15.4215 20.4222C15.2719 18.8722 15.1186 17.323 14.9662 15.7734C14.9333 15.4418 14.8971 15.1106 14.8622 14.7794H12.8174C12.8105 14.8155 12.8031 14.841 12.801 14.8673C12.651 16.6778 12.4957 18.488 12.3576 20.2997C12.3317 20.6388 12.1887 20.8603 11.8949 21.0028H9.10595C8.86802 20.8775 8.679 20.7164 8.65516 20.4222C8.53188 18.9042 8.40737 17.3859 8.28245 15.8679C8.25245 15.5034 8.21917 15.1389 8.18712 14.7744H6.13824C6.1029 15.1171 6.06632 15.4553 6.03304 15.7939C5.88552 17.2823 5.73101 18.7699 5.59746 20.2595C5.56664 20.6055 5.44459 20.8561 5.12777 21.0028H2.29813C2.015 20.8627 1.86501 20.6527 1.83501 20.3207C1.69694 18.7896 1.53914 17.2605 1.38751 15.7307C1.35587 15.413 1.32053 15.0954 1.28601 14.7679C1.07603 14.7679 0.884949 14.7687 0.694279 14.7679C0.245958 14.7658 0.00268968 14.5201 0.00227876 14.0664C0.0014569 13.0818 -0.000186805 12.0976 0.00227876 11.1131C0.00720988 9.31116 1.24533 7.81086 3.01725 7.45623C3.13395 7.43281 3.25107 7.41185 3.42365 7.37898C1.80049 7.04941 1.17547 5.7439 1.28273 4.68946C1.40683 3.47024 2.41688 2.50908 3.60693 2.46388C4.84752 2.41704 5.93113 3.2656 6.15015 4.45934C6.2759 5.146 6.13659 5.77842 5.73471 6.34673C5.3357 6.91134 4.77889 7.23721 4.15099 7.35145C4.56028 7.49486 5.02504 7.60129 5.43268 7.8162C5.84689 8.03441 6.20522 8.35945 6.59108 8.6397C7.29952 7.21625 8.47929 6.37549 10.1008 6.14948C8.31327 5.84376 7.31102 4.32785 7.43266 2.82961C7.55799 1.29397 8.83104 0.0611941 10.3412 0.00243161C11.9068 -0.0583856 13.2645 1.0281 13.5325 2.53374C13.8045 4.06157 12.8429 5.82526 10.905 6.15442C12.5306 6.37262 13.7034 7.22406 14.4406 8.70011C15.1038 7.9403 15.9261 7.51458 16.9045 7.38185C15.2896 7.03339 14.7028 5.69336 14.8187 4.6722C14.958 3.44518 15.966 2.50004 17.1576 2.46265C18.3986 2.42361 19.4802 3.28491 19.6873 4.47496C19.8057 5.15545 19.6672 5.78047 19.271 6.34303C18.8724 6.90929 18.3156 7.23556 17.6364 7.37364C17.6828 7.39911 17.7264 7.41391 17.7708 7.42007C19.2928 7.62471 20.5314 8.73545 20.8975 10.2279C20.9365 10.3861 20.9657 10.5468 20.9994 10.7063V14.3162C20.7413 14.9203 20.1911 14.7342 19.7128 14.7744C19.677 15.1225 19.6413 15.4607 19.6076 15.7989C19.4601 17.2856 19.3056 18.7719 19.1724 20.2603C19.1416 20.6063 19.0191 20.8561 18.7027 21.0024H18.7031ZM11.1158 7.45212C11.1158 7.5454 11.1158 7.61978 11.1158 7.69375C11.1158 8.58916 11.1166 9.48457 11.1158 10.38C11.1154 10.7954 10.8651 11.0757 10.4998 11.0749C10.1345 11.0744 9.8863 10.7946 9.88589 10.3779C9.88507 9.48251 9.88589 8.5871 9.88589 7.69169C9.88589 7.61814 9.88589 7.54458 9.88589 7.45582C9.81151 7.47061 9.7585 7.47883 9.70631 7.49198C8.41929 7.82319 7.45567 9.01611 7.43142 10.3471C7.41252 11.3855 7.42649 12.4247 7.42649 13.4636C7.42649 13.4825 7.43635 13.501 7.44087 13.517C7.45854 13.524 7.47046 13.533 7.48238 13.533C7.86495 13.5347 8.24752 13.5359 8.6301 13.5367C9.11581 13.5379 9.34059 13.7303 9.38086 14.2086C9.4988 15.6111 9.60933 17.014 9.72398 18.4169C9.76056 18.8644 9.80042 19.3115 9.83904 19.7639H11.163C11.2156 19.1397 11.2687 18.5221 11.3188 17.904C11.4195 16.6717 11.5156 15.4389 11.6204 14.2065C11.6611 13.7294 11.8855 13.5371 12.3728 13.5367C12.7673 13.5363 13.1618 13.5367 13.5768 13.5367C13.5768 13.4582 13.5768 13.3986 13.5768 13.3391C13.5768 12.382 13.5805 11.4254 13.5756 10.4683C13.5715 9.64647 13.2863 8.93187 12.7196 8.33644C12.2849 7.8799 11.7589 7.5828 11.1162 7.45212H11.1158ZM4.39796 19.766C4.40906 19.7006 4.42015 19.6542 4.42467 19.6077C4.60425 17.7865 4.78341 15.9653 4.96258 14.1445C4.99997 13.7627 5.23831 13.5429 5.62704 13.5375C5.80949 13.5351 5.99236 13.5371 6.19453 13.5371C6.19453 13.4648 6.19453 13.4118 6.19453 13.3592C6.19453 12.6006 6.19782 11.8425 6.19371 11.0839C6.18673 9.71345 5.09161 8.61546 3.73555 8.61463C2.35278 8.61381 1.23835 9.71345 1.23259 11.0888C1.22931 11.8404 1.23177 12.592 1.23259 13.3436C1.23259 13.4028 1.23876 13.4623 1.24287 13.5375C1.44504 13.5375 1.63489 13.5342 1.82474 13.5384C2.17649 13.5462 2.42551 13.7652 2.46003 14.1091C2.61413 15.6513 2.76412 17.194 2.91616 18.7366C2.94986 19.0797 2.98725 19.4228 3.023 19.7668H4.39796V19.766ZM19.7699 13.5367C19.7699 12.7054 19.772 11.9062 19.7695 11.1069C19.765 9.71428 18.6559 8.61258 17.2641 8.61422C15.9014 8.61587 14.8121 9.71962 14.8076 11.1061C14.8051 11.8507 14.8071 12.5957 14.8071 13.3403C14.8071 13.3999 14.8071 13.4591 14.8071 13.5371C15.0245 13.5371 15.2214 13.5322 15.4174 13.5384C15.7552 13.5482 16.0013 13.7701 16.035 14.1054C16.1895 15.6476 16.3391 17.1903 16.4911 18.7329C16.5252 19.0768 16.5622 19.42 16.5971 19.7598H17.9725C17.9832 19.7031 17.9951 19.6571 17.9996 19.6102C18.1792 17.789 18.3588 15.9682 18.5375 14.1469C18.5749 13.764 18.8124 13.5429 19.1991 13.5371C19.382 13.5347 19.5649 13.5367 19.7695 13.5367H19.7699ZM12.3453 3.08192C12.3478 2.0698 11.5255 1.23809 10.5162 1.2311C9.49551 1.22412 8.65804 2.05255 8.65557 3.07082C8.65311 4.08211 9.47619 4.91506 10.4846 4.92164C11.5054 4.92862 12.3428 4.10019 12.3453 3.08192ZM3.72527 6.15236C4.40002 6.15565 4.95723 5.60747 4.96299 4.93479C4.96874 4.25881 4.42344 3.69995 3.75116 3.69214C3.06574 3.68434 2.50482 4.23621 2.50359 4.91917C2.50236 5.59391 3.05218 6.14866 3.72527 6.15195V6.15236ZM18.4973 4.92287C18.4973 4.24813 17.9474 3.69502 17.2735 3.69255C16.598 3.69009 16.0428 4.23744 16.0379 4.91136C16.0329 5.59556 16.5889 6.15483 17.2719 6.15277C17.9454 6.15072 18.4973 5.59679 18.4973 4.92328V4.92287Z" fill="white"/>
</g>
<defs>
<clipPath id="clip0_1540_612">
<rect width="21" height="21.0025" fill="white"/>
</clipPath>
</defs>
</svg>
