<svg width="21" height="21" viewBox="0 0 21 21" fill="none" stroke="currentColor" stroke-width="1" stroke-linecap="round" stroke-linejoin="round" class="feather feather-settingsMenu" xmlns="http://www.w3.org/2000/svg">
<g clip-path="url(#clip0_189_392)">
<path d="M10.5 7C9.80777 7 9.13108 7.20527 8.55551 7.58986C7.97994 7.97444 7.53133 8.52107 7.26642 9.16061C7.00152 9.80015 6.9322 10.5039 7.06725 11.1828C7.2023 11.8617 7.53565 12.4854 8.02513 12.9749C8.51461 13.4644 9.13826 13.7977 9.81719 13.9327C10.4961 14.0678 11.1999 13.9985 11.8394 13.7336C12.4789 13.4687 13.0256 13.0201 13.4102 12.4445C13.7947 11.8689 14 11.1922 14 10.5C14 9.57174 13.6313 8.6815 12.9749 8.02513C12.3185 7.36875 11.4283 7 10.5 7ZM10.5 12.25C10.1539 12.25 9.81555 12.1474 9.52776 11.9551C9.23997 11.7628 9.01567 11.4895 8.88322 11.1697C8.75076 10.8499 8.71611 10.4981 8.78363 10.1586C8.85116 9.81913 9.01783 9.50731 9.26257 9.26256C9.50731 9.01782 9.81913 8.85115 10.1586 8.78363C10.4981 8.7161 10.8499 8.75076 11.1697 8.88321C11.4895 9.01566 11.7628 9.23997 11.9551 9.52775C12.1474 9.81554 12.25 10.1539 12.25 10.5C12.25 10.9641 12.0656 11.4092 11.7374 11.7374C11.4093 12.0656 10.9641 12.25 10.5 12.25Z" fill="white"/>
<path d="M18.6323 12.1625L18.2438 11.9385C18.4187 10.9869 18.4187 10.0114 18.2438 9.05975L18.6323 8.83575C18.9311 8.66339 19.193 8.43387 19.403 8.1603C19.6131 7.88673 19.7672 7.57447 19.8566 7.24134C19.9459 6.90821 19.9688 6.56074 19.9239 6.21876C19.879 5.87679 19.7672 5.54701 19.5948 5.24825C19.4225 4.94949 19.1929 4.68761 18.9194 4.47755C18.6458 4.2675 18.3335 4.11338 18.0004 4.024C17.6673 3.93463 17.3198 3.91174 16.9778 3.95665C16.6359 4.00156 16.3061 4.11339 16.0073 4.28575L15.6179 4.51062C14.8825 3.8823 14.0374 3.39522 13.1251 3.07387V2.625C13.1251 1.92881 12.8485 1.26113 12.3562 0.768844C11.8639 0.276562 11.1963 0 10.5001 0C9.80387 0 9.13619 0.276562 8.64391 0.768844C8.15163 1.26113 7.87507 1.92881 7.87507 2.625V3.07387C6.96278 3.39637 6.11793 3.88465 5.38307 4.51412L4.99194 4.2875C4.38857 3.9394 3.67164 3.84525 2.99885 4.02575C2.32607 4.20626 1.75254 4.64663 1.40444 5.25C1.05635 5.85337 0.962194 6.5703 1.1427 7.24309C1.3232 7.91587 1.76358 8.4894 2.36694 8.8375L2.75544 9.0615C2.58054 10.0131 2.58054 10.9886 2.75544 11.9402L2.36694 12.1642C1.76358 12.5123 1.3232 13.0859 1.1427 13.7587C0.962194 14.4314 1.05635 15.1484 1.40444 15.7517C1.75254 16.3551 2.32607 16.7955 2.99885 16.976C3.67164 17.1565 4.38857 17.0623 4.99194 16.7142L5.38132 16.4894C6.11699 17.1178 6.96242 17.6049 7.87507 17.9261V18.375C7.87507 19.0712 8.15163 19.7389 8.64391 20.2311C9.13619 20.7234 9.80387 21 10.5001 21C11.1963 21 11.8639 20.7234 12.3562 20.2311C12.8485 19.7389 13.1251 19.0712 13.1251 18.375V17.9261C14.0373 17.6036 14.8822 17.1153 15.6171 16.4859L16.0082 16.7116C16.6116 17.0597 17.3285 17.1539 18.0013 16.9734C18.6741 16.7929 19.2476 16.3525 19.5957 15.7491C19.9438 15.1458 20.0379 14.4288 19.8574 13.756C19.6769 13.0832 19.2366 12.5097 18.6332 12.1616L18.6323 12.1625ZM16.4028 8.8585C16.6991 9.93218 16.6991 11.0661 16.4028 12.1397C16.3511 12.3266 16.3629 12.5254 16.4364 12.7048C16.5098 12.8843 16.6409 13.0342 16.8088 13.1311L17.7573 13.6789C17.9584 13.7949 18.1052 13.9861 18.1653 14.2103C18.2254 14.4345 18.194 14.6735 18.078 14.8746C17.962 15.0756 17.7708 15.2224 17.5466 15.2825C17.3223 15.3427 17.0834 15.3113 16.8823 15.1952L15.9321 14.6457C15.764 14.5484 15.5683 14.5097 15.3758 14.5359C15.1833 14.562 15.005 14.6515 14.8689 14.7901C14.0901 15.5852 13.1089 16.1525 12.0313 16.4307C11.8432 16.4791 11.6766 16.5887 11.5576 16.7422C11.4386 16.8957 11.3741 17.0844 11.3742 17.2786V18.375C11.3742 18.6071 11.282 18.8296 11.1179 18.9937C10.9538 19.1578 10.7313 19.25 10.4992 19.25C10.2671 19.25 10.0446 19.1578 9.88047 18.9937C9.71638 18.8296 9.62419 18.6071 9.62419 18.375V17.2795C9.62429 17.0853 9.55977 16.8966 9.44079 16.743C9.32182 16.5895 9.15516 16.48 8.96707 16.4316C7.88937 16.1522 6.90848 15.5837 6.13032 14.7875C5.99428 14.6488 5.81596 14.5594 5.62348 14.5332C5.43099 14.5071 5.23528 14.5458 5.06719 14.6431L4.11869 15.1917C4.01914 15.2501 3.90903 15.2882 3.7947 15.3038C3.68037 15.3195 3.56408 15.3123 3.45251 15.2828C3.34095 15.2533 3.23633 15.2021 3.14466 15.132C3.05299 15.0619 2.9761 14.9743 2.9184 14.8744C2.8607 14.7745 2.82334 14.6641 2.80846 14.5497C2.79359 14.4352 2.8015 14.319 2.83173 14.2076C2.86197 14.0963 2.91393 13.992 2.98463 13.9008C3.05534 13.8096 3.14338 13.7333 3.24369 13.6762L4.19219 13.1285C4.36015 13.0316 4.49116 12.8816 4.56464 12.7022C4.63813 12.5228 4.64993 12.324 4.59819 12.1371C4.30188 11.0634 4.30188 9.92955 4.59819 8.85587C4.649 8.66939 4.63664 8.47134 4.56303 8.29263C4.48942 8.11392 4.35872 7.9646 4.19132 7.868L3.24282 7.32025C3.04173 7.20422 2.89498 7.01306 2.83484 6.78882C2.7747 6.56459 2.8061 6.32564 2.92213 6.12456C3.03816 5.92348 3.22932 5.77672 3.45356 5.71658C3.67779 5.65644 3.91673 5.68784 4.11782 5.80387L5.06807 6.35337C5.2357 6.45095 5.431 6.49006 5.62328 6.46456C5.81556 6.43906 5.99391 6.35039 6.13032 6.2125C6.90914 5.41742 7.89031 4.85014 8.96794 4.57187C9.15662 4.52337 9.32371 4.41328 9.44275 4.25906C9.56178 4.10484 9.62594 3.91531 9.62506 3.7205V2.625C9.62506 2.39293 9.71725 2.17038 9.88135 2.00628C10.0454 1.84219 10.268 1.75 10.5001 1.75C10.7321 1.75 10.9547 1.84219 11.1188 2.00628C11.2829 2.17038 11.3751 2.39293 11.3751 2.625V3.7205C11.375 3.91471 11.4395 4.10344 11.5585 4.25694C11.6774 4.41045 11.8441 4.52001 12.0322 4.56837C13.1102 4.84763 14.0914 5.41615 14.8698 6.2125C15.0059 6.35116 15.1842 6.4406 15.3767 6.46674C15.5691 6.49288 15.7648 6.45423 15.9329 6.35687L16.8814 5.80825C16.981 5.74989 17.0911 5.71179 17.2054 5.69616C17.3198 5.68053 17.4361 5.68767 17.5476 5.71716C17.6592 5.74666 17.7638 5.79793 17.8555 5.86802C17.9471 5.93812 18.024 6.02565 18.0817 6.12559C18.1394 6.22552 18.1768 6.33588 18.1917 6.45031C18.2065 6.56475 18.1986 6.68099 18.1684 6.79235C18.1382 6.90372 18.0862 7.008 18.0155 7.0992C17.9448 7.1904 17.8568 7.26671 17.7564 7.32375L16.8079 7.8715C16.6409 7.96836 16.5105 8.11779 16.4372 8.29648C16.364 8.47517 16.3519 8.67308 16.4028 8.85937V8.8585Z" fill="white"/>
</g>
<defs>
<clipPath id="clip0_189_392">
<rect width="21" height="21" fill="white"/>
</clipPath>
</defs>
</svg>
