<svg width="24" height="24" viewBox="0 0 24 24" fill="none" stroke="currentColor" stroke-width="2.1" stroke-linecap="round" stroke-linejoin="round" class="feather feather-userMenu" xmlns="http://www.w3.org/2000/svg">
<path d="M10.0209 12.2659C6.29188 12.603 3.45089 15.7539 3.50039 19.4978V19.6877C3.50039 20.4125 4.08802 21.0002 4.81289 21.0002C5.53776 21.0002 6.12539 20.4125 6.12539 19.6877V19.4453C6.08594 17.1466 7.78234 15.1863 10.0629 14.8953C12.4702 14.6566 14.6153 16.4146 14.854 18.8219C14.8681 18.9643 14.8753 19.1072 14.8754 19.2502V19.6877C14.8754 20.4125 15.463 21.0002 16.1879 21.0002C16.9127 21.0002 17.5004 20.4125 17.5004 19.6877V19.2502C17.4961 15.3798 14.3551 12.2457 10.4848 12.25C10.33 12.2502 10.1753 12.2555 10.0209 12.2659Z" fill="white"/>
<path d="M10.5005 10.5C13.4 10.5 15.7505 8.14948 15.7505 5.25C15.7505 2.35052 13.4 0 10.5005 0C7.60101 0 5.25049 2.35052 5.25049 5.25C5.25336 8.14829 7.6022 10.4971 10.5005 10.5ZM10.5005 2.625C11.9502 2.625 13.1255 3.80026 13.1255 5.25C13.1255 6.69974 11.9502 7.875 10.5005 7.875C9.05075 7.875 7.87549 6.69974 7.87549 5.25C7.87549 3.80026 9.05075 2.625 10.5005 2.625Z" fill="white"/>
</svg>
