<svg width="52" height="52" viewBox="0 0 52 52" fill="none" xmlns="http://www.w3.org/2000/svg">
<path d="M26 52C40.3594 52 52 40.3594 52 26C52 11.6406 40.3594 0 26 0C11.6406 0 0 11.6406 0 26C0 40.3594 11.6406 52 26 52Z" fill="#E2E8F0"/>
<mask id="mask0_1829_1870" style="mask-type:alpha" maskUnits="userSpaceOnUse" x="0" y="0" width="52" height="52">
<path d="M26 52C40.3594 52 52 40.3594 52 26C52 11.6406 40.3594 0 26 0C11.6406 0 0 11.6406 0 26C0 40.3594 11.6406 52 26 52Z" fill="#F5834E"/>
</mask>
<g mask="url(#mask0_1829_1870)">
<path d="M30.9803 34.5596H21.0234V41.2671H30.9803V34.5596Z" fill="#FBBCA0"/>
<path d="M23.4381 39.4138C24.9386 40.01 26.5832 40.3678 28.198 40.3827C29.1221 40.3926 30.0661 40.2734 30.9803 40.1144V34.5596H21.0234V38.0276C21.724 38.6487 22.6183 39.0859 23.4381 39.4138Z" fill="#E6E7E8"/>
<path d="M36.4003 22.1377C36.4301 21.8942 36.8375 21.4967 37.0164 21.3626C37.4089 21.0645 37.8063 21.3725 37.9256 21.7601C38.0299 22.1078 38.0399 22.5004 38.0647 22.8581C38.1243 23.7375 37.9952 24.602 37.6076 25.397C37.3492 25.9286 36.9418 26.3609 36.4648 26.6888C36.4648 26.6888 35.9481 26.9522 35.8438 26.346C35.8388 26.346 36.3953 22.1377 36.4003 22.1377Z" fill="#FBBCA0"/>
<path d="M36.3146 22.6639C36.3394 22.49 36.6276 22.2068 36.7518 22.1075C37.035 21.8938 37.3182 22.1124 37.4027 22.3907C37.4772 22.6391 37.4822 22.9173 37.502 23.1757C37.5468 23.8067 37.4524 24.4228 37.1741 24.9892C36.9903 25.3668 36.6971 25.6798 36.3543 25.9133C36.3543 25.9133 35.9866 26.1021 35.9121 25.6699C35.9121 25.6798 36.3146 22.6639 36.3146 22.6639Z" fill="#DDA78F"/>
<path d="M15.3541 22.1377C15.3193 21.8942 14.9169 21.4967 14.738 21.3626C14.3455 21.0645 13.948 21.3725 13.8288 21.7601C13.7244 22.1078 13.7145 22.5004 13.6896 22.8581C13.63 23.7375 13.7592 24.602 14.1467 25.397C14.4051 25.9286 14.8076 26.3609 15.2895 26.6888C15.2895 26.6888 15.8062 26.9522 15.9106 26.346C15.9155 26.346 15.3541 22.1377 15.3541 22.1377Z" fill="#FBBCA0"/>
<path d="M15.4344 22.6639C15.4096 22.49 15.1214 22.2068 14.9972 22.1075C14.714 21.8938 14.4308 22.1124 14.3463 22.3907C14.2718 22.6391 14.2668 22.9173 14.2469 23.1757C14.2022 23.8067 14.2966 24.4228 14.5749 24.9892C14.7587 25.3668 15.0518 25.6798 15.3947 25.9133C15.3947 25.9133 15.7623 26.1021 15.8369 25.6699C15.8369 25.6798 15.4394 22.6639 15.4344 22.6639Z" fill="#DDA78F"/>
<path d="M36.7135 22.9279C36.7135 25.7053 36.2464 28.5125 34.9646 30.9173C33.8466 33.019 32.1673 34.7033 30.3687 36.0448C28.9079 37.1329 27.3429 38.4049 25.4896 38.2508C23.5618 38.0869 22.0613 36.4075 20.6503 35.0958C18.6678 33.2475 17.1077 30.9571 16.1438 28.2591C15.5526 26.5947 15.2793 24.7216 15.2793 22.9329C15.2793 13.9548 20.0789 8.31055 25.9964 8.31055C31.9139 8.30558 36.7135 13.9498 36.7135 22.9279Z" fill="#FBBCA0"/>
<path d="M43.3918 44.3021L30.9804 41.0576H26.002H21.0235L8.61217 44.3021C8.61217 44.3021 2.86359 46.4336 2.22266 53.1758H26.002H49.7813C49.1404 46.4336 43.3918 44.3021 43.3918 44.3021Z" fill="#FBBCA0"/>
<path d="M43.3918 44.3021L30.9804 41.0576H26.002H21.0235L8.61217 44.3021C8.61217 44.3021 2.86359 46.4336 2.22266 53.1758H26.002H49.7813C49.1404 46.4336 43.3918 44.3021 43.3918 44.3021Z" fill="white"/>
<path d="M43.3927 44.3026L34.2109 41.9028L26.0078 53.1813L17.8893 41.8779L8.61803 44.3026C8.61803 44.3026 2.86945 46.4341 2.22852 53.1763H26.0078H49.7872C49.1412 46.4341 43.3927 44.3026 43.3927 44.3026Z" fill="#3C0000"/>
<path d="M24.9144 47.5273L22.6289 53.1765H29.1277L26.8969 47.5273H24.9144Z" fill="#14BAAB"/>
<path d="M25.8549 41.167L22.9434 45.0722L24.9655 47.5416L25.9593 47.5267L26.948 47.5118L28.8907 44.9778L25.8549 41.167Z" fill="#14BAAB"/>
<path d="M27.7967 44.5606C27.4241 45.2959 26.7334 46.1356 25.7894 45.9269C24.8156 45.7133 24.3734 44.7941 24.597 43.86C24.8156 42.9508 25.4019 42.1906 25.7298 41.3311L22.9375 45.0723L24.9597 47.5417L26.9421 47.5069L28.8848 44.973L28.065 43.9445C27.9905 44.1581 27.901 44.3619 27.7967 44.5606Z" fill="#D1D3D4"/>
<path d="M26.0029 53.1763L17.8893 41.8779L11.4004 43.5772L19.6928 49.4152L17.5614 50.3542L21.397 53.1763H26.0029Z" fill="#250000"/>
<path d="M26.0039 53.1969L34.1225 41.8936L40.6113 43.5928L32.3189 49.4308L34.4454 50.3698L30.6147 53.1969H26.0039Z" fill="#250000"/>
<path d="M16.1387 41.2963L21.0078 39.0107L25.9664 41.0826L30.9299 39.0107L36.132 41.2963L28.7786 46.2201L25.9664 42.1956L22.9406 46.2201L16.1387 41.2963Z" fill="#E2E3E4"/>
<path d="M32.278 34.4195C32.278 34.4195 34.9709 31.8757 35.5622 29.6299C35.5622 29.6299 32.3873 32.4917 31.2793 32.1887L32.278 34.4195Z" fill="#160100"/>
<path d="M20.4768 35.18C20.4768 35.18 17.3565 32.507 16.502 29.1582C16.502 29.1582 20.0594 33.2672 21.1674 32.9591L20.4768 35.18Z" fill="#160100"/>
<path d="M27.9003 30.7784C29.6641 30.8032 30.623 31.4094 30.623 31.4094C32.1682 32.1398 32.5657 34.1222 32.5657 34.1222C32.5657 34.1222 31.5025 35.2998 30.2007 36.1345C27.2643 38.569 25.9178 38.261 25.9178 38.261C24.2484 38.266 23.0759 37.2176 23.0759 37.2176L20.3283 35.0662C19.9854 32.6217 22.1219 31.4094 22.1219 31.4094C23.4038 30.7883 23.6323 30.8678 23.6323 30.8678C23.6323 30.8678 25.5502 30.6443 26.0172 31.4044C26.0172 31.4044 26.4992 30.7734 27.8059 30.7734" fill="#1E0500"/>
<path d="M26.262 32.7908C26.262 32.7908 25.0547 32.1896 23.3008 32.8355C23.3008 32.8355 25.9639 35.6576 28.9848 32.8703C28.9848 32.8703 27.365 32.1151 26.262 32.7908Z" fill="#FBBCA0"/>
<path d="M36.8095 9.6869C39.2242 7.92804 38.9608 5.22517 38.9608 5.22517C37.5547 6.77038 35.4978 6.96912 35.4978 6.96912C37.6293 5.69221 36.571 3.02908 36.571 3.02908C35.9052 4.51964 32.944 5.37422 32.944 5.37422C34.3799 4.4153 33.4855 2.23412 33.4855 2.23412C32.4819 3.93832 29.4809 4.6836 29.4809 4.6836C31.4534 3.56568 31.6621 1.96582 31.6621 1.96582C29.9032 3.51103 25.1136 4.25631 25.1136 4.25631C25.1136 4.25631 19.832 4.73825 18.5203 9.12545C14.6598 9.68193 14.625 16.2106 14.8933 19.7332L15.1368 23.9962H15.9963C15.6138 21.9542 15.9963 19.1867 15.9963 19.1867C16.5876 17.2043 16.8907 16.0317 17.2683 15.202C18.1825 13.2046 19.6085 12.5984 20.5177 12.4196L21.3822 12.355C25.1633 11.8035 26.2762 14.4865 26.2762 14.4865C26.8625 12.9413 28.835 12.5686 28.835 12.5686C34.5836 11.8035 35.4083 16.3497 35.4083 16.3497L36.0592 19.2414C36.1486 20.2052 36.3027 22.4361 36.0095 23.9962H36.8691L37.1125 19.7332C37.1175 19.5991 37.1175 19.4848 37.1125 19.3805C37.5498 17.0006 37.9373 13.1301 36.8095 9.6869Z" fill="#160100"/>
</g>
</svg>
